<?xml version="1.0" encoding="UTF-8" standalone="no"?><!DOCTYPE svg PUBLIC "-//W3C//DTD SVG 1.1//EN" "http://www.w3.org/Graphics/SVG/1.1/DTD/svg11.dtd"><svg width="100%" height="100%" viewBox="0 0 8000 4500" version="1.1" xmlns="http://www.w3.org/2000/svg" xmlns:xlink="http://www.w3.org/1999/xlink" xml:space="preserve" xmlns:serif="http://www.serif.com/" style="fill-rule:evenodd;clip-rule:evenodd;stroke-linejoin:round;stroke-miterlimit:2;"><g><rect id="Sky-fourth_layer-" serif:id="Sky(fourth_layer)" x="0" y="0" width="7999.28" height="4500" style="fill:#fbeaa4;"/><path id="Mountains-fourth_layer-" serif:id="Mountains(fourth_layer)" d="M1603.73,2511.91c0,0 70.388,-63.656 110.343,-88.813c40.369,-25.418 87.467,-57.863 131.873,-63.694c44.407,-5.831 96.289,27.212 134.565,28.707c32.349,1.264 65.787,-18.39 95.093,-19.736c27.163,-1.247 80.739,11.662 80.739,11.662l-243.114,119.314l-309.499,12.56Z" style="fill:#c7a452;"/><path id="Mountains-third_layer-" serif:id="Mountains(third_layer)" d="M0,2377.2c0,0 174.757,32.483 240.387,32.483c52.266,0 101.483,-38.543 153.396,-32.483c95.346,11.128 325.139,82.713 418.681,99.256c46.796,8.276 95.409,-5.871 142.568,0c74.893,9.324 202.889,59.101 306.791,55.944c167.702,-5.094 532.562,-43.894 699.418,-86.511c111.718,-28.533 228.872,-136.539 301.716,-169.186c41.964,-18.808 92.922,-8.963 135.349,-26.699c57.336,-23.968 159.318,-97.592 208.664,-117.11c27.095,-10.717 61.352,13.031 87.413,0c36.657,-18.328 89.763,-91.643 132.53,-109.971c38.012,-16.291 83.653,8.386 124.07,0c40.417,-8.386 75.672,-53.704 118.431,-50.318c94.932,7.52 325.684,95.434 451.164,95.434c105.483,0 198.281,-74.747 301.716,-95.434c105.742,-21.148 238.271,-26.213 332.734,-31.456c77.894,-4.323 164.957,8.93 234.041,0c62.233,-8.043 127.938,-47.296 180.466,-53.576c44.894,-5.366 89.541,18.012 134.704,15.9c61.874,-2.895 164.932,-33.264 236.54,-33.264c65.319,0 129.358,33.264 193.113,33.264c63.755,0 125.343,-31.252 189.417,-33.264c84.391,-2.65 219.754,-2.809 316.927,17.364c93.209,19.351 177.059,70.02 266.107,103.678c95.017,35.913 229.149,88.195 303.991,111.802c47.081,14.851 95.747,27.636 145.066,29.841c65.449,2.926 173.401,-1.476 247.628,-12.285c67.488,-9.828 129.972,-44.835 197.733,-52.57c101.176,-11.55 315.078,-7.781 409.325,-16.729c53.25,-5.056 107.579,-14.562 156.153,-36.959c53.437,-24.64 107.49,-96.403 164.469,-110.878c56.979,-14.476 124.584,9.393 177.405,24.023c49.278,13.648 104.873,56.237 139.522,63.755c23.087,5.009 44.804,-20.218 68.375,-18.646c25.394,1.694 83.99,28.81 83.99,28.81l0,1194.94l-8000,0l0,-819.151Z" style="fill:#c59644;"/><path id="Mountains-second_layer-" serif:id="Mountains(second_layer)" d="M0,2877.36c0,0 824.09,-131.406 1013.96,-170.006c45.594,-9.27 79.802,-51.647 125.251,-61.599c46.884,-10.267 104.138,3.296 156.051,0c86.238,-5.476 266.244,-14.031 361.38,-32.853c73.32,-14.506 153.313,-66.732 209.437,-80.079c41.283,-9.817 87.075,13.503 127.304,0c98.901,-33.195 362.407,-159.473 466.099,-199.17c50.073,-19.17 105.398,-21.428 156.05,-39.012c66.048,-22.929 158.19,-70.983 240.236,-98.559c82.474,-27.719 166.785,-67.758 254.609,-67.758c93.083,0 211.834,19.83 303.888,67.758c165.633,86.239 522.564,380.203 689.908,449.673c97.243,40.368 226.547,-14.031 314.155,-32.853c73.699,-15.834 136.51,-72.311 211.489,-80.079c75.972,-7.871 175.557,23.271 244.343,32.853c56.179,7.826 113.016,37.019 168.37,24.64c107.114,-23.956 313.813,-153.313 474.312,-168.371c160.499,-15.057 325.016,98.609 488.685,78.025c168.712,-21.217 385.678,-185.481 523.591,-205.329c104.222,-15 200.881,86.238 303.888,86.238c103.007,0 209.239,-58.219 314.154,-86.238c115.327,-30.8 248.519,-83.605 377.807,-98.559c142.02,-16.426 474.312,0 474.312,0l0,1484.01l-7999.28,0l0,-802.735Z" style="fill:#624f2f;"/><path id="Mountains-first_layer-" serif:id="Mountains(first_layer)" d="M0,2890.98c0,0 288.08,-100.612 431.524,-100.612c143.444,0 303.204,75.288 429.14,100.612c107.999,21.717 216.312,51.332 326.474,51.332c131.411,0 350.429,-42.777 461.992,-51.332c68.925,-5.286 138.255,0 207.383,0c131.069,0 386.044,3.051 579.03,0c259.742,-4.107 652.863,-21.219 979.423,-24.64c392.043,-4.106 915.225,0 1372.84,0c511.201,0 1337.62,12.662 1694.37,0c150.763,-5.351 322.499,-75.972 446.151,-75.972c101.788,0 194.23,68.774 295.763,75.972c178.613,12.662 775.911,0 775.911,0l0,940.095l-7995.56,0l-4.438,-915.455Z" style="fill:#373631;"/><path id="Lake" d="M0,4500l8000,0l0,-1369.69l-8000,-17.433l0,1387.13Z" style="fill:#2d392f;"/><g id="Gate"><g><path d="M3368.92,1289.66c0,0 940.687,26.57 1403.2,0c484.269,-27.819 1502.41,-166.916 1502.41,-166.916l44.881,-155.482c0,0 -1048.53,124.645 -1547.29,155.482c-480.928,29.735 -1445.24,29.54 -1445.24,29.54l42.034,137.376Z" style="fill:#7c1006;"/><path d="M3193.33,1065.96l29.283,65.736c0,0 62.101,49.991 407.038,47.58c103.316,-0.722 583.631,-10.185 1172.01,-47.58c349.246,-22.196 733.901,-48.861 1105.32,-85.331c692.29,-67.974 752.559,-193.331 752.559,-193.331l-44.397,-191.56c0,0 -311.067,206.87 -1690.66,357.873c-570.864,62.484 -1731.16,46.613 -1731.16,46.613Z" style="fill:#7c1006;"/><path d="M2951.62,998.045l96.495,-93.921c0,0 415.837,163.453 1841.5,21.813c1366.44,-135.756 1784.27,-345.694 1784.27,-345.694l48.297,79.726l-27.318,26.71c0,0 -358.048,129.273 -785.137,217.445c-348.762,72.001 -744.666,102.674 -1020.12,128.317c-335.197,31.204 -924.405,86.319 -1341.69,66.332c-353.333,-16.924 -567.184,-66.332 -567.184,-66.332l-29.119,-34.396Z" style="fill:#e06523;"/><path d="M2917.58,762.006l50.864,136.29c0,0 565.349,209.084 1740.86,97.185c1703.67,-162.176 2035.99,-443.681 2035.99,-443.681l31.373,-114.93c0,0 -137.017,273.38 -2067.37,461.426c-1359.32,132.419 -1791.73,-136.29 -1791.73,-136.29Z" style="fill:#38483a;"/></g><g><path d="M5112.5,3508.33l308.333,-8.333l-83.333,-1420.83l-187.5,0l-37.5,1429.17Z" style="fill:#7c1006;"/><rect x="5084.21" y="2019.24" width="331.171" height="65.394" style="fill:#7c1006;"/><path d="M5020.26,2007.25l63.943,16.149l331.171,0l43.412,-16.149l-438.526,0Z" style="fill:#7c1006;"/><path d="M5249.79,1941.96c0,0 -52.831,23.199 -88.569,30.988c-39.21,8.545 -161.152,15.091 -161.152,15.091l20.192,23.385l438.526,0l28.423,-8.253c0,0 -96.119,-14.033 -136.05,-24.136c-37.653,-9.526 -101.37,-37.075 -101.37,-37.075Z" style="fill:#2b1809;"/></g><g><path d="M5454.17,3483.33l383.333,0l-220.833,-2204.17l-166.667,8.333l4.167,2195.83Z" style="fill:#7c1006;"/><rect x="5397.05" y="1191.19" width="270.057" height="98.462" style="fill:#7c1006;"/></g><g><path d="M4204.17,3450l12.5,-1225l162.5,0l37.5,1225l-212.5,0Z" style="fill:#7c1006;"/><rect x="4153.15" y="2173.71" width="293.599" height="56.245" style="fill:#7c1006;"/><path d="M4098.18,2159.7l54.965,16.977l293.599,-0.484l62.884,-16.493l-411.448,0Z" style="fill:#7c1006;"/><path d="M4310.42,2094.41c0,0 -52.83,23.199 -88.569,30.988c-39.21,8.545 -148.852,20.88 -148.852,20.88l25.184,17.596l420.556,0l29.101,-8.253c0,0 -96.119,-14.033 -136.049,-24.135c-37.654,-9.526 -101.371,-37.076 -101.371,-37.076Z" style="fill:#2b1809;"/></g><g><path d="M3458.33,2145.83l145.834,0l45.833,1337.5l-237.5,0l45.833,-1337.5Z" style="fill:#7c1006;"/><rect x="3368.92" y="2096.21" width="324.511" height="53.878" style="fill:#7c1006;"/><path d="M3317.26,2073.7l51.664,26.679l324.511,0l48.299,-26.679l-424.474,0Z" style="fill:#7c1006;"/><path d="M3531.25,2009c0,0 -52.196,23.612 -87.934,31.4c-39.21,8.545 -147.324,19.87 -147.324,19.87l21.266,17.597l424.474,0l29.101,-8.253c0,0 -99.284,-13.716 -139.215,-23.818c-37.653,-9.527 -100.368,-36.796 -100.368,-36.796" style="fill:#2b1809;"/></g><g><path d="M5850,3470.83l0,-1300l158.333,0l62.5,1300l-220.833,0Z" style="fill:#7c1006;"/><rect x="5774.86" y="2112.36" width="296.974" height="59.395" style="fill:#7c1006;"/><path d="M5720.64,2100.38l54.221,16.148l296.973,0l61.441,-16.148l-412.635,0Z" style="fill:#7c1006;"/><path d="M5926.96,2035.08c0,0 -52.83,23.2 -88.569,30.988c-39.209,8.545 -138.973,17.587 -138.973,17.587l21.225,20.89l412.635,0l12.667,-17.042c0,0 -77.683,-5.245 -117.614,-15.347c-37.653,-9.526 -101.371,-37.076 -101.371,-37.076Z" style="fill:#2b1809;"/></g><g><path d="M3770.83,3470.83l158.334,-2095.83l154.166,0l29.167,2095.83l-341.667,0Z" style="fill:#7c1006;"/><rect x="3880.04" y="1293.82" width="257.747" height="85.343" style="fill:#7c1006;"/></g><g><path d="M3413.19,2317.18l0,129.059l998.595,55.225l0,-104.547l-998.595,-79.737Z" style="fill:#7c1006;"/><path d="M3405.2,2319.1l0.333,-23.844c0,0 367.172,49.156 537.751,64.987c161.647,15.002 485.718,29.998 485.718,29.998l-0.274,19.646c0,0 -324.24,-12.091 -485.768,-26.418c-170.588,-15.131 -537.76,-64.369 -537.76,-64.369Z" style="fill:#2b1809;"/></g><g><path d="M5110.46,2981.15l0,119.278c0,0 203.74,22.394 537.96,18.439c207.792,-2.458 434.905,-18.439 434.905,-18.439l0,-119.278c0,0 -216.147,6.959 -434.905,9.834c-232.203,3.051 -537.96,-9.834 -537.96,-9.834Z" style="fill:#7c1006;"/><path d="M5099.41,2981.15l0,-18.73c0,0 281.093,20.198 526.266,18.73c265.894,-1.593 474.171,-18.73 474.171,-18.73l0,18.73c0,0 -238.522,27.227 -474.171,28.171c-242.805,0.972 -526.266,-28.171 -526.266,-28.171Z" style="fill:#2b1809;"/></g><g><path d="M5134.47,2263.61l0,135.935c0,0 320.855,42.819 467.587,53.511c137.239,10.001 412.808,10.645 412.808,10.645l0,-113.921c0,0 -275.205,-11.729 -412.808,-25.197c-146.732,-14.362 -467.587,-60.973 -467.587,-60.973Z" style="fill:#7c1006;"/><path d="M5116.29,2243.34l0,22.779c0,0 318.652,43.413 471.233,57.899c147.734,14.025 444.248,29.014 444.248,29.014l0,-18.223c0,0 -296.381,-22.526 -444.248,-37.3c-152.581,-15.245 -471.233,-54.169 -471.233,-54.169Z" style="fill:#2b1809;"/></g><g><path d="M3359.86,1558.19l0,25.143c0,0 910.062,-12.522 1364.34,-37.277c487.916,-26.588 1563.16,-122.254 1563.16,-122.254l0,-40.652c0,0 -1075.24,90.331 -1563.16,119.505c-454.144,27.154 -1364.34,55.535 -1364.34,55.535Z" style="fill:#2b1809;"/><path d="M3387.5,1579.17l0,162.5c0,0 922.454,-25.296 1400.23,-48.907c477.777,-23.612 1466.43,-92.76 1466.43,-92.76l0,-175c0,0 -988.658,75.979 -1466.43,101.674c-466.744,25.101 -1400.23,52.493 -1400.23,52.493Z" style="fill:#7c1006;"/></g><g><path d="M3409.45,2984.51l0,123.211l1003.25,0l0,-108.45l-1003.25,-14.761Z" style="fill:#7c1006;"/><path d="M3393.07,2956.39l0,28.119l1031.59,16.002l0,-25.708l-1031.59,-18.413Z" style="fill:#2b1809;"/></g><rect x="4781.13" y="1281.47" width="49.215" height="221.737" style="fill:#7c1006;"/><path d="M4910.85,1499.41l29.421,-235.711l-110.414,0l0,239.172l80.993,-3.461Z" style="fill:#170908;"/><path d="M4525.98,1202.58l246.337,0l51.291,332.232l-223.655,16.734l-73.973,-348.966Z" style="fill:#170908;"/></g></g></svg>