<?xml version="1.0" encoding="UTF-8" standalone="no"?><!DOCTYPE svg PUBLIC "-//W3C//DTD SVG 1.1//EN" "http://www.w3.org/Graphics/SVG/1.1/DTD/svg11.dtd"><svg width="100%" height="100%" viewBox="0 0 33334 18750" version="1.1" xmlns="http://www.w3.org/2000/svg" xmlns:xlink="http://www.w3.org/1999/xlink" xml:space="preserve" xmlns:serif="http://www.serif.com/" style="fill-rule:evenodd;clip-rule:evenodd;stroke-linejoin:round;stroke-miterlimit:2;"><g><g id="Background"><path id="Mountains-fourth_layer-" serif:id="Mountains(fourth_layer)" d="M6682.21,10466.3c0,0 293.284,-265.234 459.763,-370.055c168.204,-105.908 364.446,-241.095 549.471,-265.391c185.029,-24.296 401.204,113.383 560.687,119.612c134.788,5.267 274.113,-76.625 396.221,-82.233c113.179,-5.196 336.413,48.592 336.413,48.592l-1012.98,497.141l-1289.58,52.334Z" style="fill:#c7a452;"/><rect id="Sky-fourth_layer-" serif:id="Sky(fourth_layer)" x="0" y="0" width="33330.3" height="18750" style="fill:#fbeaa4;"/><path id="Pagode" d="M5412.24,9867.32l5.711,95.84l4.998,4.997l0,12.85c0,0 18.005,16.921 47.986,30.499c37.693,17.07 66.236,16.796 66.236,16.796l-15.706,9.816l-31.411,2.855l0,61.573l24.808,0l0,-5.889l6.068,0l0,27.663c0,0 0.379,4.704 15.539,12.808c9.871,5.276 27.294,6.288 27.294,6.288c0,0 -4.521,2.115 -10.488,3.754c-10.722,2.945 -13.606,2.671 -13.606,2.671l0,4.283l-30.34,0l0,61.395l16.598,0l0,-6.782l6.782,0l0,29.626c0,0 10.448,8.015 25.514,13.726c13.466,5.104 32.667,7.691 32.667,7.691c0,0 -7.086,3.015 -17.618,4.803c-6.398,1.086 -20.753,1.8 -20.753,1.8l0,4.283l-21.06,0l0,63.179l10.887,0l0,-6.068l7.318,0l0,29.27c0,0 20.911,11.794 31.745,15.047c11.392,3.421 36.609,5.477 36.609,5.477c0,0 -7.756,3.59 -19.096,5.341c-12.986,2.005 -22.488,2.512 -22.488,2.512l0,3.212l-36.943,0l0,66.213l23.022,0l0,-5.175l6.425,-0.179l0,28.734c0,0 16.579,8.002 34.75,13.276c16.658,4.836 43.6,7.248 43.6,7.248c0,0 -14.256,4.372 -21.761,5.424c-8.061,1.13 -26.605,1.358 -26.605,1.358l0,4.284l-46.403,0l0,82.264l-284.697,0l0,-82.264l-46.403,0l0,-4.284c0,0 -18.544,-0.228 -26.605,-1.358c-7.506,-1.052 -21.761,-5.424 -21.761,-5.424c0,0 26.941,-2.412 43.6,-7.248c18.171,-5.274 34.749,-13.276 34.749,-13.276l0,-28.734l6.425,0.179l0,5.175l23.023,0l0,-66.213l-36.944,0l0,-3.212c0,0 -9.502,-0.507 -22.487,-2.512c-11.341,-1.751 -19.096,-5.341 -19.096,-5.341c0,0 25.216,-2.056 36.609,-5.477c10.834,-3.253 31.745,-15.047 31.745,-15.047l0,-29.27l7.318,0l0,6.068l10.886,0l0,-63.179l-21.059,0l0,-4.283c0,0 -14.355,-0.714 -20.753,-1.8c-10.532,-1.788 -17.619,-4.803 -17.619,-4.803c0,0 19.202,-2.587 32.667,-7.691c15.066,-5.711 25.515,-13.726 25.515,-13.726l0,-29.626l6.782,0l0,6.782l16.598,0l0,-61.395l-30.34,0l0,-4.283c0,0 -2.884,0.274 -13.606,-2.671c-5.968,-1.639 -10.488,-3.754 -10.488,-3.754c0,0 17.423,-1.012 27.294,-6.288c15.159,-8.104 15.539,-12.808 15.539,-12.808l0,-27.663l6.068,0l0,5.889l24.808,0l0,-61.573l-31.411,-2.855l-15.706,-9.816c0,0 28.543,0.274 66.236,-16.796c29.981,-13.578 47.986,-30.499 47.986,-30.499l0,-12.85l4.997,-4.997l5.711,-95.84l4.14,0Z"/><path d="M12943,9827.97l5855.54,-7681.99l7132.21,0l5352.86,7681.99l-18340.6,0Z" style="fill:#808080;"/><path id="Mountains-third_layer-" serif:id="Mountains(third_layer)" d="M0,9905c0,0 728.154,135.346 1001.61,135.346c217.775,0 422.845,-160.596 639.15,-135.346c397.275,46.367 1354.75,344.638 1744.5,413.567c194.983,34.483 397.537,-24.463 594.033,0c312.054,38.85 845.371,246.254 1278.3,233.1c698.758,-21.225 2219.01,-182.892 2914.24,-360.463c465.491,-118.887 953.633,-568.912 1257.15,-704.942c174.851,-78.366 387.176,-37.345 563.955,-111.245c238.9,-99.867 663.825,-406.634 869.433,-487.959c112.896,-44.654 255.633,54.296 364.221,0c152.737,-76.366 374.012,-381.845 552.208,-458.212c158.384,-67.879 348.554,34.941 516.959,0c168.404,-34.942 315.3,-223.767 493.462,-209.658c395.55,31.333 1357.02,397.641 1879.85,397.641c439.513,0 826.171,-311.446 1257.15,-397.641c440.592,-88.117 992.796,-109.221 1386.39,-131.067c324.558,-18.013 687.321,37.208 975.171,0c259.304,-33.513 533.075,-197.067 751.941,-223.234c187.059,-22.358 373.088,75.051 561.267,66.251c257.808,-12.063 687.217,-138.6 985.583,-138.6c272.163,0 538.992,138.6 804.638,138.6c265.646,0 522.262,-130.217 789.237,-138.6c351.629,-11.042 915.642,-11.705 1320.53,72.35c388.371,80.629 737.746,291.75 1108.78,431.991c395.904,149.638 954.787,367.479 1266.63,465.842c196.171,61.879 398.946,115.15 604.441,124.337c272.705,12.192 722.505,-6.15 1031.78,-51.187c281.2,-40.95 541.55,-186.813 823.887,-219.042c421.567,-48.125 1312.83,-32.421 1705.52,-69.704c221.875,-21.067 448.246,-60.675 650.638,-153.996c222.654,-102.666 447.875,-401.679 685.287,-461.991c237.413,-60.317 519.1,39.137 739.188,100.095c205.325,56.867 436.97,234.321 581.341,265.646c96.196,20.871 186.684,-84.241 284.896,-77.691c105.808,7.058 349.958,120.041 349.958,120.041l0,4978.92l-33333.3,0l0,-3413.15Z" style="fill:#c59644;"/><path id="Pagode1" serif:id="Pagode" d="M12948.5,7411.31l14.989,251.543l13.116,13.116l0,33.726c0,0 47.258,44.413 125.947,80.049c98.93,44.804 173.844,44.083 173.844,44.083l-41.221,25.764l-82.443,7.494l0,161.606l65.111,0l0,-15.458l15.926,0l0,72.606c0,0 0.997,12.348 40.785,33.616c25.907,13.849 71.637,16.505 71.637,16.505c0,0 -11.864,5.55 -27.528,9.853c-28.141,7.729 -35.709,7.01 -35.709,7.01l0,11.243l-79.632,0l0,161.137l43.563,0l0,-17.8l17.8,0l0,77.758c0,0 27.424,21.036 66.967,36.025c35.342,13.396 85.739,20.186 85.739,20.186c0,0 -18.6,7.914 -46.242,12.606c-16.792,2.851 -54.469,4.726 -54.469,4.726l0,11.242l-55.274,0l0,165.821l28.574,0l0,-15.926l19.205,0l0,76.821c0,0 54.886,30.956 83.32,39.493c29.901,8.979 96.086,14.376 96.086,14.376c0,0 -20.356,9.423 -50.121,14.018c-34.082,5.262 -59.021,6.593 -59.021,6.593l0,8.431l-96.964,0l0,173.785l60.427,0l0,-13.584l16.863,-0.468l0,75.416c0,0 43.513,21.001 91.205,34.845c43.722,12.691 114.433,19.023 114.433,19.023c0,0 -37.415,11.473 -57.113,14.235c-21.157,2.967 -69.83,3.565 -69.83,3.565l0,11.242l-121.79,0l0,215.913l-747.226,0l0,-215.913l-121.79,0l0,-11.242c0,0 -48.673,-0.598 -69.83,-3.565c-19.699,-2.762 -57.113,-14.235 -57.113,-14.235c0,0 70.711,-6.332 114.432,-19.023c47.693,-13.844 91.206,-34.845 91.206,-34.845l0,-75.416l16.863,0.468l0,13.584l60.426,0l0,-173.785l-96.963,0l0,-8.431c0,0 -24.939,-1.331 -59.021,-6.593c-29.765,-4.595 -50.122,-14.018 -50.122,-14.018c0,0 66.186,-5.397 96.087,-14.376c28.434,-8.537 83.319,-39.493 83.319,-39.493l0,-76.821l19.206,0l0,15.926l28.573,0l0,-165.821l-55.273,0l0,-11.242c0,0 -37.677,-1.875 -54.469,-4.726c-27.642,-4.692 -46.242,-12.606 -46.242,-12.606c0,0 50.396,-6.79 85.739,-20.186c39.543,-14.989 66.967,-36.025 66.967,-36.025l0,-77.758l17.8,0l0,17.8l43.563,0l0,-161.137l-79.632,0l0,-11.243c0,0 -7.569,0.719 -35.709,-7.01c-15.664,-4.303 -27.528,-9.853 -27.528,-9.853c0,0 45.73,-2.656 71.637,-16.505c39.788,-21.268 40.784,-33.616 40.784,-33.616l0,-72.606l15.927,0l0,15.458l65.111,0l0,-161.606l-82.443,-7.494l-41.221,-25.764c0,0 74.913,0.721 173.844,-44.083c78.689,-35.636 125.947,-80.049 125.947,-80.049l0,-33.726l13.115,-13.116l14.99,-251.543l10.866,0Z"/><path id="Mountains-second_layer-" serif:id="Mountains(second_layer)" d="M0,11989c0,0 3433.71,-547.525 4224.83,-708.358c189.975,-38.625 332.509,-215.196 521.88,-256.663c195.35,-42.779 433.908,13.734 650.212,0c359.325,-22.816 1109.35,-58.462 1505.75,-136.887c305.5,-60.442 638.804,-278.05 872.654,-333.663c172.013,-40.904 362.813,56.263 530.433,0c412.088,-138.312 1510.03,-664.471 1942.08,-829.875c208.637,-79.875 439.158,-89.283 650.208,-162.55c275.2,-95.537 659.125,-295.762 1000.98,-410.662c343.642,-115.496 694.938,-282.325 1060.87,-282.325c387.846,0 882.642,82.625 1266.2,282.325c690.138,359.329 2177.35,1584.18 2874.62,1873.64c405.179,168.2 943.946,-58.462 1308.98,-136.887c307.079,-65.975 568.792,-301.296 881.204,-333.663c316.55,-32.796 731.488,96.963 1018.1,136.888c234.079,32.608 470.9,154.245 701.542,102.666c446.308,-99.816 1307.55,-638.804 1976.3,-701.546c668.745,-62.737 1354.23,410.871 2036.19,325.105c702.967,-88.405 1606.99,-772.838 2181.63,-855.538c434.259,-62.5 837.004,359.325 1266.2,359.325c429.196,0 871.829,-242.579 1308.98,-359.325c480.529,-128.333 1035.5,-348.354 1574.2,-410.662c591.75,-68.442 1976.3,0 1976.3,0l0,6183.38l-33330.3,0l0,-3344.73l0.004,0.013Z" style="fill:#624f2f;"/><path id="Pagode2" serif:id="Pagode" d="M28585.4,8219.18l31.498,528.581l27.561,27.561l0,70.871c0,0 99.306,93.327 264.658,168.211c207.889,94.149 365.308,92.634 365.308,92.634l-86.62,54.138l-173.241,15.749l0,339.591l136.821,0l0,-32.483l33.467,0l0,152.57c0,0 2.094,25.948 85.702,70.64c54.441,29.1 150.535,34.683 150.535,34.683c0,0 -24.931,11.663 -57.846,20.703c-59.133,16.241 -75.038,14.732 -75.038,14.732l0,23.624l-167.334,0l0,338.606l91.542,0l0,-37.404l37.404,0l0,163.398c0,0 57.626,44.204 140.721,75.699c74.266,28.15 180.168,42.419 180.168,42.419c0,0 -39.086,16.629 -97.172,26.49c-35.285,5.99 -114.458,9.93 -114.458,9.93l0,23.624l-116.149,0l0,348.449l60.043,0l0,-33.466l40.357,0l0,161.428c0,0 115.334,65.048 175.085,82.989c62.832,18.866 201.91,30.208 201.91,30.208c0,0 -42.776,19.802 -105.322,29.457c-71.618,11.056 -124.024,13.853 -124.024,13.853l0,17.718l-203.755,0l0,365.183l126.977,0l0,-28.545l35.436,-0.984l0,158.476c0,0 91.436,44.13 191.654,73.221c91.875,26.67 240.463,39.975 240.463,39.975c0,0 -78.621,24.109 -120.014,29.913c-44.459,6.234 -146.737,7.492 -146.737,7.492l0,23.623l-255.924,0l0,453.71l-1570.18,0l0,-453.71l-255.924,0l0,-23.623c0,0 -102.278,-1.258 -146.737,-7.492c-41.393,-5.804 -120.014,-29.913 -120.014,-29.913c0,0 148.588,-13.305 240.463,-39.975c100.218,-29.091 191.654,-73.221 191.654,-73.221l0,-158.476l35.436,0.984l0,28.545l126.977,0l0,-365.183l-203.755,0l0,-17.718c0,0 -52.405,-2.797 -124.024,-13.853c-62.546,-9.655 -105.322,-29.457 -105.322,-29.457c0,0 139.078,-11.342 201.911,-30.208c59.75,-17.941 175.084,-82.989 175.084,-82.989l0,-161.428l40.357,0l0,33.466l60.044,0l0,-348.449l-116.15,0l0,-23.624c0,0 -79.173,-3.94 -114.458,-9.93c-58.086,-9.861 -97.172,-26.49 -97.172,-26.49c0,0 105.902,-14.269 180.168,-42.419c83.095,-31.495 140.721,-75.699 140.721,-75.699l0,-163.398l37.404,0l0,37.404l91.542,0l0,-338.606l-167.334,0l0,-23.624c0,0 -15.905,1.509 -75.038,-14.732c-32.915,-9.04 -57.846,-20.703 -57.846,-20.703c0,0 96.094,-5.583 150.535,-34.683c83.608,-44.692 85.702,-70.64 85.702,-70.64l0,-152.57l33.467,0l0,32.483l136.821,0l0,-339.591l-173.24,-15.749l-86.621,-54.138c0,0 157.419,1.515 365.308,-92.634c165.353,-74.884 264.658,-168.211 264.658,-168.211l0,-70.871l27.561,-27.561l31.498,-528.581l22.833,0Z"/><path id="Mountains-first_layer-" serif:id="Mountains(first_layer)" d="M0,12045.8c0,0 1200.33,-419.217 1798.02,-419.217c597.683,0 1263.35,313.7 1788.08,419.217c449.996,90.488 901.3,213.883 1360.31,213.883c547.546,0 1460.12,-178.237 1924.97,-213.883c287.188,-22.025 576.062,0 864.096,0c546.121,0 1608.52,12.713 2412.63,0c1082.26,-17.112 2720.26,-88.412 4080.93,-102.667c1633.51,-17.108 3813.44,0 5720.17,0c2130,0 5573.42,52.759 7059.88,0c628.179,-22.296 1343.75,-316.55 1858.96,-316.55c424.117,0 809.292,286.559 1232.35,316.55c744.221,52.759 3232.96,0 3232.96,0l-0.001,3917.06l-33314.8,0l-18.492,-3814.4l-0.012,0Z" style="fill:#023100;"/><g id="Cherry-Trees" serif:id="Cherry Trees"><g><rect x="2183.24" y="12276.8" width="42.38" height="186.927" style="fill:#2b1809;"/><circle cx="2204.43" cy="12144.1" r="152.703" style="fill:#ffb7c5;"/></g><g><rect x="1311.38" y="12040.6" width="42.38" height="186.927" style="fill:#2b1809;"/><circle cx="1332.57" cy="11907.9" r="152.703" style="fill:#ffb7c5;"/></g><g><rect x="580.487" y="12386.3" width="42.38" height="186.927" style="fill:#2b1809;"/><circle cx="601.677" cy="12253.6" r="152.703" style="fill:#ffb7c5;"/></g><g><rect x="3468.07" y="12622.5" width="42.38" height="186.927" style="fill:#2b1809;"/><circle cx="3489.26" cy="12489.7" r="152.703" style="fill:#ffb7c5;"/></g><g><rect x="4581.51" y="12513" width="42.38" height="186.927" style="fill:#2b1809;"/><circle cx="4602.7" cy="12380.3" r="152.703" style="fill:#ffb7c5;"/></g><g><rect x="32589.1" y="12040.6" width="42.38" height="186.927" style="fill:#2b1809;"/><circle cx="32610.3" cy="11907.9" r="152.703" style="fill:#ffb7c5;"/></g><g><rect x="31455.8" y="12622.5" width="42.38" height="186.927" style="fill:#2b1809;"/><circle cx="31477" cy="12489.7" r="152.703" style="fill:#ffb7c5;"/></g><g><rect x="30237.9" y="12150.1" width="42.38" height="186.927" style="fill:#2b1809;"/><circle cx="30259.1" cy="12017.4" r="152.703" style="fill:#ffb7c5;"/></g><g><rect x="29020" y="11677.8" width="42.38" height="186.927" style="fill:#2b1809;"/><circle cx="29041.1" cy="11545.1" r="152.703" style="fill:#ffb7c5;"/></g><g><rect x="28585.8" y="12513" width="42.38" height="186.927" style="fill:#2b1809;"/><circle cx="28607" cy="12380.3" r="152.703" style="fill:#ffb7c5;"/></g><g><rect x="27058.5" y="12135.8" width="42.38" height="186.927" style="fill:#2b1809;"/><circle cx="27079.7" cy="12003.1" r="152.703" style="fill:#ffb7c5;"/></g><g><rect x="25886.4" y="12655.2" width="42.38" height="186.927" style="fill:#2b1809;"/><circle cx="25907.6" cy="12522.5" r="152.703" style="fill:#ffb7c5;"/></g><g><rect x="24223.8" y="12390.9" width="42.38" height="186.927" style="fill:#2b1809;"/><circle cx="24245" cy="12258.1" r="152.703" style="fill:#ffb7c5;"/></g><g><rect x="22406.3" y="12487.8" width="42.38" height="186.927" style="fill:#2b1809;"/><circle cx="22427.5" cy="12355.1" r="152.703" style="fill:#ffb7c5;"/></g><g><rect x="20537.2" y="12825.7" width="42.38" height="186.927" style="fill:#2b1809;"/><circle cx="20558.4" cy="12693" r="152.703" style="fill:#ffb7c5;"/></g><g><rect x="18324" y="12475.3" width="42.38" height="186.927" style="fill:#2b1809;"/><circle cx="18345.2" cy="12342.6" r="152.703" style="fill:#ffb7c5;"/></g><g><rect x="17074.4" y="12021.7" width="42.38" height="186.927" style="fill:#2b1809;"/><circle cx="17095.5" cy="11889" r="152.703" style="fill:#ffb7c5;"/></g><g><rect x="15016" y="12067.1" width="42.38" height="186.927" style="fill:#2b1809;"/><circle cx="15037.2" cy="11934.3" r="152.703" style="fill:#ffb7c5;"/></g><g><rect x="14144.9" y="12749.1" width="42.38" height="186.927" style="fill:#2b1809;"/><circle cx="14166.1" cy="12616.4" r="152.703" style="fill:#ffb7c5;"/></g><g><rect x="12981.3" y="12467.5" width="42.38" height="186.927" style="fill:#2b1809;"/><circle cx="13002.5" cy="12334.8" r="152.703" style="fill:#ffb7c5;"/></g><g><rect x="11989.8" y="12168.7" width="42.38" height="186.927" style="fill:#2b1809;"/><circle cx="12011" cy="12036" r="152.703" style="fill:#ffb7c5;"/></g><g><rect x="10499.2" y="12644.3" width="42.38" height="186.927" style="fill:#2b1809;"/><circle cx="10520.4" cy="12511.6" r="152.703" style="fill:#ffb7c5;"/></g><g><rect x="7167.51" y="12173.4" width="42.38" height="186.927" style="fill:#2b1809;"/><circle cx="7188.7" cy="12040.7" r="152.703" style="fill:#ffb7c5;"/></g><g><rect x="6003.91" y="12700.6" width="42.38" height="186.927" style="fill:#2b1809;"/><circle cx="6025.1" cy="12567.9" r="152.703" style="fill:#ffb7c5;"/></g><g><rect x="8660.35" y="12522.3" width="42.38" height="186.927" style="fill:#2b1809;"/><circle cx="8681.54" cy="12389.6" r="152.703" style="fill:#ffb7c5;"/></g></g><path id="Lake" d="M0,18750l33333.3,0l0,-5707.04l-33333.3,-72.637l0,5779.71l0,-0.029Z" style="fill:#2d392f;"/></g><g id="Gate"><g><path d="M13305.5,4441.5l122.012,273.9c0,0 258.754,208.296 1695.99,198.25c430.483,-3.008 2431.8,-42.437 4883.38,-198.25c1455.19,-92.483 3057.92,-203.587 4605.5,-355.546c2884.54,-283.225 3135.66,-805.546 3135.66,-805.546l-184.987,-798.166c0,0 -1296.11,861.958 -7044.42,1491.14c-2378.6,260.35 -7213.17,194.221 -7213.17,194.221l0.029,0Z" style="fill:#7c1006;"/><path d="M12298.4,4158.52l402.062,-391.338c0,0 1732.65,681.055 7672.92,90.888c5693.5,-565.65 7434.46,-1440.39 7434.46,-1440.39l201.238,332.192l-113.825,111.292c0,0 -1491.87,538.637 -3271.4,906.02c-1453.17,300.005 -3102.78,427.809 -4250.5,534.655c-1396.65,130.016 -3851.69,359.662 -5590.38,276.383c-1472.22,-70.517 -2363.27,-276.383 -2363.27,-276.383l-121.329,-143.317l0.025,0Z" style="fill:#e06523;"/><path d="M12156.6,3175.03l211.934,567.875c0,0 2355.62,871.183 7253.58,404.938c7098.63,-675.734 8483.29,-1848.67 8483.29,-1848.67l130.72,-478.875c0,0 -570.904,1139.08 -8614.04,1922.61c-5663.83,551.746 -7465.54,-567.875 -7465.54,-567.875l0.054,0Z" style="fill:#38483a;"/></g><g><path d="M21302.1,14618l1284.72,-34.721l-347.221,-5920.13l-781.25,0l-156.25,5954.88l0,-0.029Z" style="fill:#7c1006;"/><rect x="21184.2" y="8413.5" width="1379.88" height="272.475" style="fill:#7c1006;"/><path d="M20917.8,8363.54l266.429,67.287l1379.88,0l180.884,-67.287l-1827.19,0Z" style="fill:#7c1006;"/><path d="M21874.1,8091.5c0,0 -220.129,96.663 -369.037,129.117c-163.376,35.604 -671.467,62.879 -671.467,62.879l84.133,97.437l1827.19,0l118.429,-34.387c0,0 -400.496,-58.471 -566.875,-100.567c-156.888,-39.691 -422.375,-154.479 -422.375,-154.479Z" style="fill:#2b1809;"/></g><g><path d="M22725.7,14513.9l1597.22,0l-920.137,-9184.04l-694.446,34.721l17.362,9149.29l0,0.029Z" style="fill:#7c1006;"/><rect x="22487.7" y="4963.29" width="1125.24" height="410.258" style="fill:#7c1006;"/></g><g><path d="M17517.4,14375l52.083,-5104.17l677.084,0l156.25,5104.17l-885.417,0Z" style="fill:#7c1006;"/><rect x="17304.8" y="9057.13" width="1223.33" height="234.354" style="fill:#7c1006;"/><path d="M17075.8,8998.75l229.021,70.737l1223.33,-2.016l262.017,-68.721l-1714.37,0Z" style="fill:#7c1006;"/><path d="M17960.1,8726.71c0,0 -220.125,96.663 -369.037,129.117c-163.375,35.604 -620.217,87 -620.217,87l104.934,73.317l1752.32,0l121.254,-34.388c0,0 -400.496,-58.471 -566.871,-100.562c-156.891,-39.692 -422.379,-154.484 -422.379,-154.484Z" style="fill:#2b1809;"/></g><g><path d="M14409.7,8940.96l607.642,0l190.971,5572.92l-989.583,0l190.97,-5572.92Z" style="fill:#7c1006;"/><rect x="14037.2" y="8734.21" width="1352.13" height="224.492" style="fill:#7c1006;"/><path d="M13821.9,8640.42l215.266,111.162l1352.13,0l201.245,-111.162l-1768.64,0Z" style="fill:#7c1006;"/><path d="M14713.5,8370.83c0,0 -217.484,98.384 -366.392,130.834c-163.375,35.604 -613.85,82.791 -613.85,82.791l88.608,73.321l1768.64,0l121.254,-34.387c0,0 -413.683,-57.15 -580.062,-99.242c-156.888,-39.696 -418.2,-153.317 -418.2,-153.317" style="fill:#2b1809;"/></g><g><path d="M24375,14461.8l0,-5416.67l659.721,0l260.416,5416.67l-920.137,0Z" style="fill:#7c1006;"/><rect x="24061.9" y="8801.5" width="1237.39" height="247.479" style="fill:#7c1006;"/><path d="M23836,8751.58l225.921,67.284l1237.39,0l256.005,-67.284l-1719.31,0Z" style="fill:#7c1006;"/><path d="M24695.7,8479.5c0,0 -220.125,96.667 -369.038,129.117c-163.371,35.604 -579.054,73.279 -579.054,73.279l88.438,87.041l1719.31,0l52.779,-71.008c0,0 -323.679,-21.854 -490.058,-63.946c-156.888,-39.691 -422.379,-154.483 -422.379,-154.483Z" style="fill:#2b1809;"/></g><g><path d="M15711.8,14461.8l659.725,-8732.63l642.358,0l121.529,8732.63l-1423.61,0Z" style="fill:#7c1006;"/><rect x="16166.8" y="5390.92" width="1073.95" height="355.596" style="fill:#7c1006;"/></g><g><path d="M14221.6,9654.92l0,537.746l4160.81,230.104l-0.001,-435.613l-4160.81,-332.237Z" style="fill:#7c1006;"/><path d="M14188.3,9662.92l1.388,-99.35c0,0 1529.88,204.816 2240.63,270.779c673.529,62.508 2023.83,124.992 2023.83,124.992l-1.142,81.858c0,0 -1351,-50.379 -2024.03,-110.075c-710.783,-63.046 -2240.67,-268.204 -2240.67,-268.204Z" style="fill:#2b1809;"/></g><g><path d="M21293.6,12421.5l0,496.992c0,0 848.917,93.308 2241.5,76.829c865.8,-10.242 1812.11,-76.829 1812.11,-76.829l0,-496.992c0,0 -900.613,28.996 -1812.11,40.975c-967.512,12.713 -2241.5,-40.975 -2241.5,-40.975Z" style="fill:#7c1006;"/><path d="M21247.5,12421.5l0,-78.041c0,0 1171.22,84.158 2192.78,78.041c1107.89,-6.637 1975.71,-78.041 1975.71,-78.041l0,78.041c0,0 -993.842,113.446 -1975.71,117.379c-1011.69,4.05 -2192.78,-117.379 -2192.78,-117.379Z" style="fill:#2b1809;"/></g><g><path d="M21393.6,9431.71l0,566.396c0,0 1336.9,178.413 1948.28,222.963c571.829,41.671 1720.03,44.354 1720.03,44.354l0,-474.671c0,0 -1146.69,-48.871 -1720.03,-104.987c-611.383,-59.842 -1948.28,-254.055 -1948.28,-254.055Z" style="fill:#7c1006;"/><path d="M21317.9,9347.25l0,94.913c0,-0.001 1327.72,180.887 1963.47,241.245c615.558,58.438 1851.03,120.892 1851.03,120.892l0,-75.929c0,0 -1234.92,-93.858 -1851.03,-155.417c-635.754,-63.521 -1963.47,-225.704 -1963.47,-225.704Z" style="fill:#2b1809;"/></g><g><path d="M13999.4,6492.46l0,104.763c0,0 3791.93,-52.175 5684.75,-155.321c2032.98,-110.783 6513.17,-509.392 6513.17,-509.392l0,-169.383c0,0 -4480.17,376.379 -6513.17,497.938c-1892.27,113.141 -5684.75,231.395 -5684.75,231.395Z" style="fill:#2b1809;"/><path d="M14114.6,6579.88l0,677.083c0,0 3843.56,-105.4 5834.29,-203.779c1990.74,-98.383 6110.13,-386.5 6110.13,-386.5l0,-729.166c0,0 -4119.41,316.579 -6110.13,423.641c-1944.77,104.588 -5834.29,218.721 -5834.29,218.721Z" style="fill:#7c1006;"/></g><g><path d="M14206,12435.5l0,513.38l4180.21,0l0,-451.875l-4180.21,-61.505Z" style="fill:#7c1006;"/><path d="M14137.8,12318.3l0,117.162l4298.29,66.675l0,-107.116l-4298.29,-76.721Z" style="fill:#2b1809;"/></g><rect x="19921.4" y="5339.46" width="205.063" height="923.904" style="fill:#7c1006;"/><path d="M20457.7,6247.54l122.588,-982.13l-460.058,0.001l0,996.55l337.47,-14.421Z" style="fill:#170908;"/><path d="M14037.2,5373.58c0,0 3919.53,110.709 5846.67,0c2017.79,-115.912 6260.04,-695.483 6260.04,-695.483l187.004,-647.842c0,0 -4368.88,519.355 -6447.04,647.842c-2003.87,123.896 -6021.83,123.083 -6021.83,123.083l175.142,572.4l0.021,0Z" style="fill:#7c1006;"/><path d="M18858.3,5010.75l1026.4,0l213.713,1384.3l-931.896,69.725l-308.221,-1454.03Z" style="fill:#170908;"/></g><g id="Sun"><circle cx="4602.7" cy="4547.58" r="2079.51" style="fill:#ff1200;"/><path d="M4746.99,5134.12c-12.075,13.002 10.28,51.191 27.176,45.771c113.713,-36.473 476.067,-197.149 655.098,-264.613c137.842,-51.943 317.298,-119.196 419.091,-140.174c62.748,-12.932 113.697,15.283 191.666,14.303c78.141,-0.982 185.73,-23.618 276.057,-47.201c96.787,-25.27 229.57,-87.013 304.663,-104.415c47.377,-10.98 105.607,-2.146 145.896,0c32.185,1.714 65.319,12.873 95.833,12.873c29.398,0 60.059,-1.699 87.251,-12.873c34.805,-14.304 94.879,-37.428 121.579,-72.948c26.7,-35.52 42.195,-107.753 38.619,-140.174c-2.96,-26.841 -84.284,-42.39 -60.074,-54.353c40.526,-20.025 206.208,-40.049 303.233,-65.796c94.295,-25.021 300.849,-71.278 278.917,-88.681c-21.932,-17.403 -318.967,-9.694 -410.509,-15.734c-46.649,-3.078 -93.449,-18.837 -138.743,-20.506c-44.449,-1.637 -90.589,4.454 -133.022,10.494c-41.012,5.837 -85.821,25.746 -121.58,25.746c-32.157,0 -95.293,6.327 -92.972,-25.746c2.622,-36.236 62.697,-137.075 108.706,-191.666c46.01,-54.592 127.171,-117.573 167.351,-135.883c28.739,-13.097 39.785,6.417 60.074,0c18.015,-5.699 34.479,-33.55 38.619,-55.784c6.437,-34.566 -14.838,-101.974 -24.316,-151.616c-10.012,-52.446 57.476,-167.745 -35.758,-163.06c-101.925,5.123 -306.214,129.262 -417.661,191.667c-179.239,100.365 -202.802,165.657 -271.765,143.034c-68.963,-22.623 -105.129,-185.004 -142.013,-278.772c-35.958,-91.416 -55.644,-219.766 -79.289,-283.834c-13.67,-37.041 -36.924,-70.557 -62.577,-100.571c-37.249,-43.581 -119.568,-113.236 -160.914,-160.914c-33.307,-38.408 -54.323,-86.346 -87.162,-125.155c-36.876,-43.581 -92.748,-91.259 -134.094,-136.33c-39.657,-43.229 -76.739,-88.768 -113.981,-134.094c-48.051,-58.481 -124.41,-140.428 -174.323,-216.787c-49.587,-75.861 -54.756,-222.002 -125.155,-241.371c-70.4,-19.369 -227.589,84.927 -297.244,125.155c-48.362,27.931 -100.571,77.477 -120.685,116.216c-17.852,34.38 -3.356,77.623 0,116.215c3.725,42.836 11.752,94.476 22.349,140.8c13.037,56.99 35.677,134.551 55.873,201.142c27.564,90.887 65.477,232.125 109.51,344.177c45.816,116.588 119.941,244.35 165.384,355.351c41.506,101.384 67.42,219.022 107.276,310.653c36.307,83.473 86.044,168.364 131.86,239.136c42.431,65.544 105.413,132.605 143.034,185.498c30.071,42.278 71.518,96.474 82.692,131.86c8.227,26.053 -15.334,53.137 -15.644,80.457c-0.373,32.778 37.142,85.273 13.409,116.215c-29.426,38.366 -126.645,83.809 -189.967,113.981c-60.622,28.884 -169.109,45.443 -189.968,67.047c-20.859,21.604 85.898,41.195 64.812,62.578c-26.446,26.819 -161.286,79.339 -223.491,98.336c-47.996,14.658 -112.118,8.94 -149.739,15.644c-26.209,4.671 -61.46,12.665 -75.987,24.584c-12.433,10.201 1.157,36.611 -11.175,46.934c-27.899,23.353 -134.713,70.025 -156.22,93.184Z"/></g></g></svg>