<?xml version="1.0" encoding="UTF-8" standalone="no"?>
<!DOCTYPE svg PUBLIC "-//W3C//DTD SVG 1.1//EN" "http://www.w3.org/Graphics/SVG/1.1/DTD/svg11.dtd">
<svg width="100%" height="100%" viewBox="0 0 1920 120" version="1.1" xmlns="http://www.w3.org/2000/svg" xmlns:xlink="http://www.w3.org/1999/xlink" xml:space="preserve" xmlns:serif="http://www.serif.com/" style="fill-rule:evenodd;clip-rule:evenodd;stroke-linejoin:round;stroke-miterlimit:2;">
    <g>
        <g>
            <g transform="matrix(1,0,0,1,10,0)">
                <g transform="matrix(1,0,0,1,0,-20)">
                    <g transform="matrix(0.512728,0,0,0.800943,0,15.8296)">
                        <rect x="0" y="30.177" width="19.504" height="99.882" style="fill:white;"/>
                    </g>
                    <g transform="matrix(0.742857,0,0,1.02643,5.71433,18.1468)">
                        <rect x="59.615" y="60.257" width="40.385" height="9.743" style="fill:white;"/>
                    </g>
                    <g transform="matrix(0.96568,0,0,1.00273,-7.94083,9.80567)">
                        <rect x="60" y="50.054" width="10.355" height="19.946" style="fill:white;"/>
                    </g>
                    <g transform="matrix(0.890365,0,0,0.500473,0,19.9811)">
                        <rect x="0" y="40" width="89.851" height="19.981" style="fill:white;"/>
                    </g>
                    <g transform="matrix(0.987872,0,0,0.75,0.363831,30)">
                        <rect x="19.877" y="40" width="10.123" height="80" style="fill:white;"/>
                    </g>
                    <g transform="matrix(0.504661,0,0,0.749793,29.5339,5.02661)">
                        <rect x="80.185" y="59.981" width="19.815" height="40.007" style="fill:white;"/>
                    </g>
                    <g transform="matrix(0.931096,0,0,0.980101,12.4924,10.9416)">
                        <rect x="18.803" y="50.054" width="21.48" height="10.203" style="fill:white;"/>
                    </g>
                    <g transform="matrix(0.990155,0,0,0.979677,0.295344,22.0323)">
                        <rect x="30" y="89.793" width="70.696" height="10.207" style="fill:white;"/>
                    </g>
                </g>
                <g transform="matrix(1,0,0,1,100,-20)">
                    <g transform="matrix(0.512728,0,0,0.800943,0,15.8296)">
                        <rect x="0" y="30.177" width="19.504" height="99.882" style="fill:white;"/>
                    </g>
                    <g transform="matrix(0.742857,0,0,1.02643,5.71433,18.1468)">
                        <rect x="59.615" y="60.257" width="40.385" height="9.743" style="fill:white;"/>
                    </g>
                    <g transform="matrix(0.96568,0,0,1.00273,-7.94083,9.80567)">
                        <rect x="60" y="50.054" width="10.355" height="19.946" style="fill:white;"/>
                    </g>
                    <g transform="matrix(0.890365,0,0,0.500473,0,19.9811)">
                        <rect x="0" y="40" width="89.851" height="19.981" style="fill:white;"/>
                    </g>
                    <g transform="matrix(0.987872,0,0,0.75,0.363831,30)">
                        <rect x="19.877" y="40" width="10.123" height="80" style="fill:white;"/>
                    </g>
                    <g transform="matrix(0.504661,0,0,0.749793,29.5339,5.02661)">
                        <rect x="80.185" y="59.981" width="19.815" height="40.007" style="fill:white;"/>
                    </g>
                    <g transform="matrix(0.931096,0,0,0.980101,12.4924,10.9416)">
                        <rect x="18.803" y="50.054" width="21.48" height="10.203" style="fill:white;"/>
                    </g>
                    <g transform="matrix(0.990155,0,0,0.979677,0.295344,22.0323)">
                        <rect x="30" y="89.793" width="70.696" height="10.207" style="fill:white;"/>
                    </g>
                </g>
                <g transform="matrix(1,0,0,1,200,-20)">
                    <g transform="matrix(0.512728,0,0,0.800943,0,15.8296)">
                        <rect x="0" y="30.177" width="19.504" height="99.882" style="fill:white;"/>
                    </g>
                    <g transform="matrix(0.742857,0,0,1.02643,5.71433,18.1468)">
                        <rect x="59.615" y="60.257" width="40.385" height="9.743" style="fill:white;"/>
                    </g>
                    <g transform="matrix(0.96568,0,0,1.00273,-7.94083,9.80567)">
                        <rect x="60" y="50.054" width="10.355" height="19.946" style="fill:white;"/>
                    </g>
                    <g transform="matrix(0.890365,0,0,0.500473,0,19.9811)">
                        <rect x="0" y="40" width="89.851" height="19.981" style="fill:white;"/>
                    </g>
                    <g transform="matrix(0.987872,0,0,0.75,0.363831,30)">
                        <rect x="19.877" y="40" width="10.123" height="80" style="fill:white;"/>
                    </g>
                    <g transform="matrix(0.504661,0,0,0.749793,29.5339,5.02661)">
                        <rect x="80.185" y="59.981" width="19.815" height="40.007" style="fill:white;"/>
                    </g>
                    <g transform="matrix(0.931096,0,0,0.980101,12.4924,10.9416)">
                        <rect x="18.803" y="50.054" width="21.48" height="10.203" style="fill:white;"/>
                    </g>
                    <g transform="matrix(0.990155,0,0,0.979677,0.295344,22.0323)">
                        <rect x="30" y="89.793" width="70.696" height="10.207" style="fill:white;"/>
                    </g>
                </g>
                <g transform="matrix(1,0,0,1,300,-20)">
                    <g transform="matrix(0.512728,0,0,0.800943,0,15.8296)">
                        <rect x="0" y="30.177" width="19.504" height="99.882" style="fill:white;"/>
                    </g>
                    <g transform="matrix(0.742857,0,0,1.02643,5.71433,18.1468)">
                        <rect x="59.615" y="60.257" width="40.385" height="9.743" style="fill:white;"/>
                    </g>
                    <g transform="matrix(0.96568,0,0,1.00273,-7.94083,9.80567)">
                        <rect x="60" y="50.054" width="10.355" height="19.946" style="fill:white;"/>
                    </g>
                    <g transform="matrix(0.890365,0,0,0.500473,0,19.9811)">
                        <rect x="0" y="40" width="89.851" height="19.981" style="fill:white;"/>
                    </g>
                    <g transform="matrix(0.987872,0,0,0.75,0.363831,30)">
                        <rect x="19.877" y="40" width="10.123" height="80" style="fill:white;"/>
                    </g>
                    <g transform="matrix(0.504661,0,0,0.749793,29.5339,5.02661)">
                        <rect x="80.185" y="59.981" width="19.815" height="40.007" style="fill:white;"/>
                    </g>
                    <g transform="matrix(0.931096,0,0,0.980101,12.4924,10.9416)">
                        <rect x="18.803" y="50.054" width="21.48" height="10.203" style="fill:white;"/>
                    </g>
                    <g transform="matrix(0.990155,0,0,0.979677,0.295344,22.0323)">
                        <rect x="30" y="89.793" width="70.696" height="10.207" style="fill:white;"/>
                    </g>
                </g>
                <g transform="matrix(1,0,0,1,400,-20)">
                    <g transform="matrix(0.512728,0,0,0.800943,0,15.8296)">
                        <rect x="0" y="30.177" width="19.504" height="99.882" style="fill:white;"/>
                    </g>
                    <g transform="matrix(0.742857,0,0,1.02643,5.71433,18.1468)">
                        <rect x="59.615" y="60.257" width="40.385" height="9.743" style="fill:white;"/>
                    </g>
                    <g transform="matrix(0.96568,0,0,1.00273,-7.94083,9.80567)">
                        <rect x="60" y="50.054" width="10.355" height="19.946" style="fill:white;"/>
                    </g>
                    <g transform="matrix(0.890365,0,0,0.500473,0,19.9811)">
                        <rect x="0" y="40" width="89.851" height="19.981" style="fill:white;"/>
                    </g>
                    <g transform="matrix(0.987872,0,0,0.75,0.363831,30)">
                        <rect x="19.877" y="40" width="10.123" height="80" style="fill:white;"/>
                    </g>
                    <g transform="matrix(0.504661,0,0,0.749793,29.5339,5.02661)">
                        <rect x="80.185" y="59.981" width="19.815" height="40.007" style="fill:white;"/>
                    </g>
                    <g transform="matrix(0.931096,0,0,0.980101,12.4924,10.9416)">
                        <rect x="18.803" y="50.054" width="21.48" height="10.203" style="fill:white;"/>
                    </g>
                    <g transform="matrix(0.990155,0,0,0.979677,0.295344,22.0323)">
                        <rect x="30" y="89.793" width="70.696" height="10.207" style="fill:white;"/>
                    </g>
                </g>
                <g transform="matrix(1,0,0,1,500,-20)">
                    <g transform="matrix(0.512728,0,0,0.800943,0,15.8296)">
                        <rect x="0" y="30.177" width="19.504" height="99.882" style="fill:white;"/>
                    </g>
                    <g transform="matrix(0.742857,0,0,1.02643,5.71433,18.1468)">
                        <rect x="59.615" y="60.257" width="40.385" height="9.743" style="fill:white;"/>
                    </g>
                    <g transform="matrix(0.96568,0,0,1.00273,-7.94083,9.80567)">
                        <rect x="60" y="50.054" width="10.355" height="19.946" style="fill:white;"/>
                    </g>
                    <g transform="matrix(0.890365,0,0,0.500473,0,19.9811)">
                        <rect x="0" y="40" width="89.851" height="19.981" style="fill:white;"/>
                    </g>
                    <g transform="matrix(0.987872,0,0,0.75,0.363831,30)">
                        <rect x="19.877" y="40" width="10.123" height="80" style="fill:white;"/>
                    </g>
                    <g transform="matrix(0.504661,0,0,0.749793,29.5339,5.02661)">
                        <rect x="80.185" y="59.981" width="19.815" height="40.007" style="fill:white;"/>
                    </g>
                    <g transform="matrix(0.931096,0,0,0.980101,12.4924,10.9416)">
                        <rect x="18.803" y="50.054" width="21.48" height="10.203" style="fill:white;"/>
                    </g>
                    <g transform="matrix(0.990155,0,0,0.979677,0.295344,22.0323)">
                        <rect x="30" y="89.793" width="70.696" height="10.207" style="fill:white;"/>
                    </g>
                </g>
                <g transform="matrix(1,0,0,1,600,-20)">
                    <g transform="matrix(0.512728,0,0,0.800943,0,15.8296)">
                        <rect x="0" y="30.177" width="19.504" height="99.882" style="fill:white;"/>
                    </g>
                    <g transform="matrix(0.742857,0,0,1.02643,5.71433,18.1468)">
                        <rect x="59.615" y="60.257" width="40.385" height="9.743" style="fill:white;"/>
                    </g>
                    <g transform="matrix(0.96568,0,0,1.00273,-7.94083,9.80567)">
                        <rect x="60" y="50.054" width="10.355" height="19.946" style="fill:white;"/>
                    </g>
                    <g transform="matrix(0.890365,0,0,0.500473,0,19.9811)">
                        <rect x="0" y="40" width="89.851" height="19.981" style="fill:white;"/>
                    </g>
                    <g transform="matrix(0.987872,0,0,0.75,0.363831,30)">
                        <rect x="19.877" y="40" width="10.123" height="80" style="fill:white;"/>
                    </g>
                    <g transform="matrix(0.504661,0,0,0.749793,29.5339,5.02661)">
                        <rect x="80.185" y="59.981" width="19.815" height="40.007" style="fill:white;"/>
                    </g>
                    <g transform="matrix(0.931096,0,0,0.980101,12.4924,10.9416)">
                        <rect x="18.803" y="50.054" width="21.48" height="10.203" style="fill:white;"/>
                    </g>
                    <g transform="matrix(0.990155,0,0,0.979677,0.295344,22.0323)">
                        <rect x="30" y="89.793" width="70.696" height="10.207" style="fill:white;"/>
                    </g>
                </g>
                <g transform="matrix(1,0,0,1,700,-20)">
                    <g transform="matrix(0.512728,0,0,0.800943,0,15.8296)">
                        <rect x="0" y="30.177" width="19.504" height="99.882" style="fill:white;"/>
                    </g>
                    <g transform="matrix(0.742857,0,0,1.02643,5.71433,18.1468)">
                        <rect x="59.615" y="60.257" width="40.385" height="9.743" style="fill:white;"/>
                    </g>
                    <g transform="matrix(0.96568,0,0,1.00273,-7.94083,9.80567)">
                        <rect x="60" y="50.054" width="10.355" height="19.946" style="fill:white;"/>
                    </g>
                    <g transform="matrix(0.890365,0,0,0.500473,0,19.9811)">
                        <rect x="0" y="40" width="89.851" height="19.981" style="fill:white;"/>
                    </g>
                    <g transform="matrix(0.987872,0,0,0.75,0.363831,30)">
                        <rect x="19.877" y="40" width="10.123" height="80" style="fill:white;"/>
                    </g>
                    <g transform="matrix(0.504661,0,0,0.749793,29.5339,5.02661)">
                        <rect x="80.185" y="59.981" width="19.815" height="40.007" style="fill:white;"/>
                    </g>
                    <g transform="matrix(0.931096,0,0,0.980101,12.4924,10.9416)">
                        <rect x="18.803" y="50.054" width="21.48" height="10.203" style="fill:white;"/>
                    </g>
                    <g transform="matrix(0.990155,0,0,0.979677,0.295344,22.0323)">
                        <rect x="30" y="89.793" width="70.696" height="10.207" style="fill:white;"/>
                    </g>
                </g>
                <g transform="matrix(1,0,0,1,800,-20)">
                    <g transform="matrix(0.512728,0,0,0.800943,0,15.8296)">
                        <rect x="0" y="30.177" width="19.504" height="99.882" style="fill:white;"/>
                    </g>
                    <g transform="matrix(0.742857,0,0,1.02643,5.71433,18.1468)">
                        <rect x="59.615" y="60.257" width="40.385" height="9.743" style="fill:white;"/>
                    </g>
                    <g transform="matrix(0.96568,0,0,1.00273,-7.94083,9.80567)">
                        <rect x="60" y="50.054" width="10.355" height="19.946" style="fill:white;"/>
                    </g>
                    <g transform="matrix(0.890365,0,0,0.500473,0,19.9811)">
                        <rect x="0" y="40" width="89.851" height="19.981" style="fill:white;"/>
                    </g>
                    <g transform="matrix(0.987872,0,0,0.75,0.363831,30)">
                        <rect x="19.877" y="40" width="10.123" height="80" style="fill:white;"/>
                    </g>
                    <g transform="matrix(0.504661,0,0,0.749793,29.5339,5.02661)">
                        <rect x="80.185" y="59.981" width="19.815" height="40.007" style="fill:white;"/>
                    </g>
                    <g transform="matrix(0.931096,0,0,0.980101,12.4924,10.9416)">
                        <rect x="18.803" y="50.054" width="21.48" height="10.203" style="fill:white;"/>
                    </g>
                    <g transform="matrix(0.990155,0,0,0.979677,0.295344,22.0323)">
                        <rect x="30" y="89.793" width="70.696" height="10.207" style="fill:white;"/>
                    </g>
                </g>
                <g transform="matrix(1,0,0,1,900,-20)">
                    <g transform="matrix(0.512728,0,0,0.800943,0,15.8296)">
                        <rect x="0" y="30.177" width="19.504" height="99.882" style="fill:white;"/>
                    </g>
                    <g transform="matrix(0.742857,0,0,1.02643,5.71433,18.1468)">
                        <rect x="59.615" y="60.257" width="40.385" height="9.743" style="fill:white;"/>
                    </g>
                    <g transform="matrix(0.96568,0,0,1.00273,-7.94083,9.80567)">
                        <rect x="60" y="50.054" width="10.355" height="19.946" style="fill:white;"/>
                    </g>
                    <g transform="matrix(0.890365,0,0,0.500473,0,19.9811)">
                        <rect x="0" y="40" width="89.851" height="19.981" style="fill:white;"/>
                    </g>
                    <g transform="matrix(0.987872,0,0,0.75,0.363831,30)">
                        <rect x="19.877" y="40" width="10.123" height="80" style="fill:white;"/>
                    </g>
                    <g transform="matrix(0.504661,0,0,0.749793,29.5339,5.02661)">
                        <rect x="80.185" y="59.981" width="19.815" height="40.007" style="fill:white;"/>
                    </g>
                    <g transform="matrix(0.931096,0,0,0.980101,12.4924,10.9416)">
                        <rect x="18.803" y="50.054" width="21.48" height="10.203" style="fill:white;"/>
                    </g>
                    <g transform="matrix(0.990155,0,0,0.979677,0.295344,22.0323)">
                        <rect x="30" y="89.793" width="70.696" height="10.207" style="fill:white;"/>
                    </g>
                </g>
                <g transform="matrix(1,0,0,1,1000,-20)">
                    <g transform="matrix(0.512728,0,0,0.800943,0,15.8296)">
                        <rect x="0" y="30.177" width="19.504" height="99.882" style="fill:white;"/>
                    </g>
                    <g transform="matrix(0.742857,0,0,1.02643,5.71433,18.1468)">
                        <rect x="59.615" y="60.257" width="40.385" height="9.743" style="fill:white;"/>
                    </g>
                    <g transform="matrix(0.96568,0,0,1.00273,-7.94083,9.80567)">
                        <rect x="60" y="50.054" width="10.355" height="19.946" style="fill:white;"/>
                    </g>
                    <g transform="matrix(0.890365,0,0,0.500473,0,19.9811)">
                        <rect x="0" y="40" width="89.851" height="19.981" style="fill:white;"/>
                    </g>
                    <g transform="matrix(0.987872,0,0,0.75,0.363831,30)">
                        <rect x="19.877" y="40" width="10.123" height="80" style="fill:white;"/>
                    </g>
                    <g transform="matrix(0.504661,0,0,0.749793,29.5339,5.02661)">
                        <rect x="80.185" y="59.981" width="19.815" height="40.007" style="fill:white;"/>
                    </g>
                    <g transform="matrix(0.931096,0,0,0.980101,12.4924,10.9416)">
                        <rect x="18.803" y="50.054" width="21.48" height="10.203" style="fill:white;"/>
                    </g>
                    <g transform="matrix(0.990155,0,0,0.979677,0.295344,22.0323)">
                        <rect x="30" y="89.793" width="70.696" height="10.207" style="fill:white;"/>
                    </g>
                </g>
                <g transform="matrix(1,0,0,1,1100,-20)">
                    <g transform="matrix(0.512728,0,0,0.800943,0,15.8296)">
                        <rect x="0" y="30.177" width="19.504" height="99.882" style="fill:white;"/>
                    </g>
                    <g transform="matrix(0.742857,0,0,1.02643,5.71433,18.1468)">
                        <rect x="59.615" y="60.257" width="40.385" height="9.743" style="fill:white;"/>
                    </g>
                    <g transform="matrix(0.96568,0,0,1.00273,-7.94083,9.80567)">
                        <rect x="60" y="50.054" width="10.355" height="19.946" style="fill:white;"/>
                    </g>
                    <g transform="matrix(0.890365,0,0,0.500473,0,19.9811)">
                        <rect x="0" y="40" width="89.851" height="19.981" style="fill:white;"/>
                    </g>
                    <g transform="matrix(0.987872,0,0,0.75,0.363831,30)">
                        <rect x="19.877" y="40" width="10.123" height="80" style="fill:white;"/>
                    </g>
                    <g transform="matrix(0.504661,0,0,0.749793,29.5339,5.02661)">
                        <rect x="80.185" y="59.981" width="19.815" height="40.007" style="fill:white;"/>
                    </g>
                    <g transform="matrix(0.931096,0,0,0.980101,12.4924,10.9416)">
                        <rect x="18.803" y="50.054" width="21.48" height="10.203" style="fill:white;"/>
                    </g>
                    <g transform="matrix(0.990155,0,0,0.979677,0.295344,22.0323)">
                        <rect x="30" y="89.793" width="70.696" height="10.207" style="fill:white;"/>
                    </g>
                </g>
                <g transform="matrix(1,0,0,1,1200,-20)">
                    <g transform="matrix(0.512728,0,0,0.800943,0,15.8296)">
                        <rect x="0" y="30.177" width="19.504" height="99.882" style="fill:white;"/>
                    </g>
                    <g transform="matrix(0.742857,0,0,1.02643,5.71433,18.1468)">
                        <rect x="59.615" y="60.257" width="40.385" height="9.743" style="fill:white;"/>
                    </g>
                    <g transform="matrix(0.96568,0,0,1.00273,-7.94083,9.80567)">
                        <rect x="60" y="50.054" width="10.355" height="19.946" style="fill:white;"/>
                    </g>
                    <g transform="matrix(0.890365,0,0,0.500473,0,19.9811)">
                        <rect x="0" y="40" width="89.851" height="19.981" style="fill:white;"/>
                    </g>
                    <g transform="matrix(0.987872,0,0,0.75,0.363831,30)">
                        <rect x="19.877" y="40" width="10.123" height="80" style="fill:white;"/>
                    </g>
                    <g transform="matrix(0.504661,0,0,0.749793,29.5339,5.02661)">
                        <rect x="80.185" y="59.981" width="19.815" height="40.007" style="fill:white;"/>
                    </g>
                    <g transform="matrix(0.931096,0,0,0.980101,12.4924,10.9416)">
                        <rect x="18.803" y="50.054" width="21.48" height="10.203" style="fill:white;"/>
                    </g>
                    <g transform="matrix(0.990155,0,0,0.979677,0.295344,22.0323)">
                        <rect x="30" y="89.793" width="70.696" height="10.207" style="fill:white;"/>
                    </g>
                </g>
                <g transform="matrix(1,0,0,1,1300,-20)">
                    <g transform="matrix(0.512728,0,0,0.800943,0,15.8296)">
                        <rect x="0" y="30.177" width="19.504" height="99.882" style="fill:white;"/>
                    </g>
                    <g transform="matrix(0.742857,0,0,1.02643,5.71433,18.1468)">
                        <rect x="59.615" y="60.257" width="40.385" height="9.743" style="fill:white;"/>
                    </g>
                    <g transform="matrix(0.96568,0,0,1.00273,-7.94083,9.80567)">
                        <rect x="60" y="50.054" width="10.355" height="19.946" style="fill:white;"/>
                    </g>
                    <g transform="matrix(0.890365,0,0,0.500473,0,19.9811)">
                        <rect x="0" y="40" width="89.851" height="19.981" style="fill:white;"/>
                    </g>
                    <g transform="matrix(0.987872,0,0,0.75,0.363831,30)">
                        <rect x="19.877" y="40" width="10.123" height="80" style="fill:white;"/>
                    </g>
                    <g transform="matrix(0.504661,0,0,0.749793,29.5339,5.02661)">
                        <rect x="80.185" y="59.981" width="19.815" height="40.007" style="fill:white;"/>
                    </g>
                    <g transform="matrix(0.931096,0,0,0.980101,12.4924,10.9416)">
                        <rect x="18.803" y="50.054" width="21.48" height="10.203" style="fill:white;"/>
                    </g>
                    <g transform="matrix(0.990155,0,0,0.979677,0.295344,22.0323)">
                        <rect x="30" y="89.793" width="70.696" height="10.207" style="fill:white;"/>
                    </g>
                </g>
                <g transform="matrix(1,0,0,1,1400,-20)">
                    <g transform="matrix(0.512728,0,0,0.800943,0,15.8296)">
                        <rect x="0" y="30.177" width="19.504" height="99.882" style="fill:white;"/>
                    </g>
                    <g transform="matrix(0.742857,0,0,1.02643,5.71433,18.1468)">
                        <rect x="59.615" y="60.257" width="40.385" height="9.743" style="fill:white;"/>
                    </g>
                    <g transform="matrix(0.96568,0,0,1.00273,-7.94083,9.80567)">
                        <rect x="60" y="50.054" width="10.355" height="19.946" style="fill:white;"/>
                    </g>
                    <g transform="matrix(0.890365,0,0,0.500473,0,19.9811)">
                        <rect x="0" y="40" width="89.851" height="19.981" style="fill:white;"/>
                    </g>
                    <g transform="matrix(0.987872,0,0,0.75,0.363831,30)">
                        <rect x="19.877" y="40" width="10.123" height="80" style="fill:white;"/>
                    </g>
                    <g transform="matrix(0.504661,0,0,0.749793,29.5339,5.02661)">
                        <rect x="80.185" y="59.981" width="19.815" height="40.007" style="fill:white;"/>
                    </g>
                    <g transform="matrix(0.931096,0,0,0.980101,12.4924,10.9416)">
                        <rect x="18.803" y="50.054" width="21.48" height="10.203" style="fill:white;"/>
                    </g>
                    <g transform="matrix(0.990155,0,0,0.979677,0.295344,22.0323)">
                        <rect x="30" y="89.793" width="70.696" height="10.207" style="fill:white;"/>
                    </g>
                </g>
                <g transform="matrix(1,0,0,1,1500,-20)">
                    <g transform="matrix(0.512728,0,0,0.800943,0,15.8296)">
                        <rect x="0" y="30.177" width="19.504" height="99.882" style="fill:white;"/>
                    </g>
                    <g transform="matrix(0.742857,0,0,1.02643,5.71433,18.1468)">
                        <rect x="59.615" y="60.257" width="40.385" height="9.743" style="fill:white;"/>
                    </g>
                    <g transform="matrix(0.96568,0,0,1.00273,-7.94083,9.80567)">
                        <rect x="60" y="50.054" width="10.355" height="19.946" style="fill:white;"/>
                    </g>
                    <g transform="matrix(0.890365,0,0,0.500473,0,19.9811)">
                        <rect x="0" y="40" width="89.851" height="19.981" style="fill:white;"/>
                    </g>
                    <g transform="matrix(0.987872,0,0,0.75,0.363831,30)">
                        <rect x="19.877" y="40" width="10.123" height="80" style="fill:white;"/>
                    </g>
                    <g transform="matrix(0.504661,0,0,0.749793,29.5339,5.02661)">
                        <rect x="80.185" y="59.981" width="19.815" height="40.007" style="fill:white;"/>
                    </g>
                    <g transform="matrix(0.931096,0,0,0.980101,12.4924,10.9416)">
                        <rect x="18.803" y="50.054" width="21.48" height="10.203" style="fill:white;"/>
                    </g>
                    <g transform="matrix(0.990155,0,0,0.979677,0.295344,22.0323)">
                        <rect x="30" y="89.793" width="70.696" height="10.207" style="fill:white;"/>
                    </g>
                </g>
                <g transform="matrix(1,0,0,1,1600,-20)">
                    <g transform="matrix(0.512728,0,0,0.800943,0,15.8296)">
                        <rect x="0" y="30.177" width="19.504" height="99.882" style="fill:white;"/>
                    </g>
                    <g transform="matrix(0.742857,0,0,1.02643,5.71433,18.1468)">
                        <rect x="59.615" y="60.257" width="40.385" height="9.743" style="fill:white;"/>
                    </g>
                    <g transform="matrix(0.96568,0,0,1.00273,-7.94083,9.80567)">
                        <rect x="60" y="50.054" width="10.355" height="19.946" style="fill:white;"/>
                    </g>
                    <g transform="matrix(0.890365,0,0,0.500473,0,19.9811)">
                        <rect x="0" y="40" width="89.851" height="19.981" style="fill:white;"/>
                    </g>
                    <g transform="matrix(0.987872,0,0,0.75,0.363831,30)">
                        <rect x="19.877" y="40" width="10.123" height="80" style="fill:white;"/>
                    </g>
                    <g transform="matrix(0.504661,0,0,0.749793,29.5339,5.02661)">
                        <rect x="80.185" y="59.981" width="19.815" height="40.007" style="fill:white;"/>
                    </g>
                    <g transform="matrix(0.931096,0,0,0.980101,12.4924,10.9416)">
                        <rect x="18.803" y="50.054" width="21.48" height="10.203" style="fill:white;"/>
                    </g>
                    <g transform="matrix(0.990155,0,0,0.979677,0.295344,22.0323)">
                        <rect x="30" y="89.793" width="70.696" height="10.207" style="fill:white;"/>
                    </g>
                </g>
                <g transform="matrix(1,0,0,1,1700,-20)">
                    <g transform="matrix(0.512728,0,0,0.800943,0,15.8296)">
                        <rect x="0" y="30.177" width="19.504" height="99.882" style="fill:white;"/>
                    </g>
                    <g transform="matrix(0.742857,0,0,1.02643,5.71433,18.1468)">
                        <rect x="59.615" y="60.257" width="40.385" height="9.743" style="fill:white;"/>
                    </g>
                    <g transform="matrix(0.96568,0,0,1.00273,-7.94083,9.80567)">
                        <rect x="60" y="50.054" width="10.355" height="19.946" style="fill:white;"/>
                    </g>
                    <g transform="matrix(0.890365,0,0,0.500473,0,19.9811)">
                        <rect x="0" y="40" width="89.851" height="19.981" style="fill:white;"/>
                    </g>
                    <g transform="matrix(0.987872,0,0,0.75,0.363831,30)">
                        <rect x="19.877" y="40" width="10.123" height="80" style="fill:white;"/>
                    </g>
                    <g transform="matrix(0.504661,0,0,0.749793,29.5339,5.02661)">
                        <rect x="80.185" y="59.981" width="19.815" height="40.007" style="fill:white;"/>
                    </g>
                    <g transform="matrix(0.931096,0,0,0.980101,12.4924,10.9416)">
                        <rect x="18.803" y="50.054" width="21.48" height="10.203" style="fill:white;"/>
                    </g>
                    <g transform="matrix(0.990155,0,0,0.979677,0.295344,22.0323)">
                        <rect x="30" y="89.793" width="70.696" height="10.207" style="fill:white;"/>
                    </g>
                </g>
                <g transform="matrix(1,0,0,1,1800,-20)">
                    <g transform="matrix(0.512728,0,0,0.800943,0,15.8296)">
                        <rect x="0" y="30.177" width="19.504" height="99.882" style="fill:white;"/>
                    </g>
                    <g transform="matrix(0.742857,0,0,1.02643,5.71433,18.1468)">
                        <rect x="59.615" y="60.257" width="40.385" height="9.743" style="fill:white;"/>
                    </g>
                    <g transform="matrix(0.96568,0,0,1.00273,-7.94083,9.80567)">
                        <rect x="60" y="50.054" width="10.355" height="19.946" style="fill:white;"/>
                    </g>
                    <g transform="matrix(0.890365,0,0,0.500473,0,19.9811)">
                        <rect x="0" y="40" width="89.851" height="19.981" style="fill:white;"/>
                    </g>
                    <g transform="matrix(0.987872,0,0,0.75,0.363831,30)">
                        <rect x="19.877" y="40" width="10.123" height="80" style="fill:white;"/>
                    </g>
                    <g transform="matrix(0.504661,0,0,0.749793,29.5339,5.02661)">
                        <rect x="80.185" y="59.981" width="19.815" height="40.007" style="fill:white;"/>
                    </g>
                    <g transform="matrix(0.931096,0,0,0.980101,12.4924,10.9416)">
                        <rect x="18.803" y="50.054" width="21.48" height="10.203" style="fill:white;"/>
                    </g>
                    <g transform="matrix(0.990155,0,0,0.979677,0.295344,22.0323)">
                        <rect x="30" y="89.793" width="70.696" height="10.207" style="fill:white;"/>
                    </g>
                </g>
            </g>
            <rect x="1910" y="20" width="10" height="80" style="fill:white;"/>
            <g transform="matrix(1,0,0,1.00619,0,-0.619126)">
                <rect x="0" y="90.062" width="10" height="9.938" style="fill:white;"/>
            </g>
        </g>
        <g transform="matrix(1,0,0,0.979188,0,2.49748)">
            <rect x="0" y="109.787" width="1920" height="10.213" style="fill:white;"/>
        </g>
        <g transform="matrix(1,0,0,0.979188,0,-107.503)">
            <rect x="0" y="109.787" width="1920" height="10.213" style="fill:white;"/>
        </g>
    </g>
</svg>
